<svg id="Component_2_1" data-name="Component 2 – 1" xmlns="http://www.w3.org/2000/svg" xmlns:xlink="http://www.w3.org/1999/xlink" width="33" height="30" viewBox="0 0 33 30">
  <defs>
    <clipPath id="clip-path">
      <path id="Path_7" data-name="Path 7" d="M0,9H33V-21H0Z" transform="translate(0 21)" fill="#16ffa6"/>
    </clipPath>
  </defs>
  <g id="Group_50" data-name="Group 50" clip-path="url(#clip-path)">
    <g id="Group_49" data-name="Group 49">
      <path id="Path_6" data-name="Path 6" d="M3.1,9H15.441A1.317,1.317,0,0,0,16.77,7.671V7.329A1.317,1.317,0,0,1,18.1,6h3.343A1.317,1.317,0,0,0,22.77,4.671V1.329a1.283,1.283,0,0,1,.386-.943A1.283,1.283,0,0,1,24.1,0h.343a1.283,1.283,0,0,0,.943-.386,1.283,1.283,0,0,0,.386-.943v-9.343a1.283,1.283,0,0,0-.386-.943A1.283,1.283,0,0,0,24.441-12H24.1a1.283,1.283,0,0,1-.943-.386,1.283,1.283,0,0,1-.386-.943v-3.343a1.283,1.283,0,0,0-.386-.943A1.283,1.283,0,0,0,21.441-18H18.1a1.283,1.283,0,0,1-.943-.386,1.283,1.283,0,0,1-.386-.943v-.343a1.283,1.283,0,0,0-.386-.943A1.283,1.283,0,0,0,15.441-21H3.1a1.283,1.283,0,0,0-.943.386,1.283,1.283,0,0,0-.386.943v.343a1.283,1.283,0,0,1-.386.943A1.283,1.283,0,0,1,.441-18H.1a1.283,1.283,0,0,0-.943.386,1.283,1.283,0,0,0-.386.943v.343a1.283,1.283,0,0,1-.386.943A1.283,1.283,0,0,1-2.559-15H-2.9a1.283,1.283,0,0,0-.943.386,1.283,1.283,0,0,0-.386.943v3.343a1.283,1.283,0,0,1-.386.943A1.283,1.283,0,0,1-5.559-9H-5.9a1.283,1.283,0,0,0-.943.386,1.283,1.283,0,0,0-.386.943v3.343a1.283,1.283,0,0,0,.386.943A1.283,1.283,0,0,0-5.9-3h.343a1.283,1.283,0,0,1,.943.386,1.283,1.283,0,0,1,.386.943V1.671a1.283,1.283,0,0,0,.386.943A1.283,1.283,0,0,0-2.9,3h.343a1.283,1.283,0,0,1,.943.386,1.283,1.283,0,0,1,.386.943v.343a1.283,1.283,0,0,0,.386.943A1.283,1.283,0,0,0,.1,6H.441a1.283,1.283,0,0,1,.943.386,1.283,1.283,0,0,1,.386.943v.343A1.317,1.317,0,0,0,3.1,9M6.441-9H3.1a1.283,1.283,0,0,1-.943-.386,1.283,1.283,0,0,1-.386-.943v-.343a1.283,1.283,0,0,1,.386-.943A1.283,1.283,0,0,1,3.1-12h.343a1.283,1.283,0,0,0,.943-.386,1.283,1.283,0,0,0,.386-.943v-.343a1.283,1.283,0,0,1,.386-.943A1.283,1.283,0,0,1,6.1-15h.343a1.283,1.283,0,0,1,.943.386,1.283,1.283,0,0,1,.386.943v3.343a1.283,1.283,0,0,1-.386.943A1.283,1.283,0,0,1,6.441-9m9,0H12.1a1.283,1.283,0,0,1-.943-.386,1.283,1.283,0,0,1-.386-.943v-3.343a1.283,1.283,0,0,1,.386-.943A1.283,1.283,0,0,1,12.1-15h3.343a1.283,1.283,0,0,1,.943.386,1.283,1.283,0,0,1,.386.943v3.343a1.283,1.283,0,0,1-.386.943A1.283,1.283,0,0,1,15.441-9m-3,12H6.1a1.283,1.283,0,0,1-.943-.386,1.283,1.283,0,0,1-.386-.943V1.329A1.283,1.283,0,0,0,4.384.386,1.283,1.283,0,0,0,3.441,0H3.1a1.283,1.283,0,0,1-.943-.386,1.283,1.283,0,0,1-.386-.943v-.343a1.283,1.283,0,0,0-.386-.943A1.283,1.283,0,0,0,.441-3H.1a1.283,1.283,0,0,1-.943-.386,1.283,1.283,0,0,1-.386-.943v-.343a1.283,1.283,0,0,1,.386-.943A1.283,1.283,0,0,1,.1-6H3.441a1.283,1.283,0,0,1,.943.386,1.283,1.283,0,0,1,.386.943v.343a1.283,1.283,0,0,0,.386.943A1.283,1.283,0,0,0,6.1-3h.343a1.283,1.283,0,0,1,.943.386,1.283,1.283,0,0,1,.386.943v.343a1.283,1.283,0,0,0,.386.943A1.283,1.283,0,0,0,9.1,0h.343a1.283,1.283,0,0,0,.943-.386,1.283,1.283,0,0,0,.386-.943v-.343a1.283,1.283,0,0,1,.386-.943A1.283,1.283,0,0,1,12.1-3h3.343a1.283,1.283,0,0,0,.943-.386,1.283,1.283,0,0,0,.386-.943v-.343a1.283,1.283,0,0,1,.386-.943A1.283,1.283,0,0,1,18.1-6h.343a1.283,1.283,0,0,1,.943.386,1.283,1.283,0,0,1,.386.943v.343a1.283,1.283,0,0,1-.386.943A1.283,1.283,0,0,1,18.441-3H18.1a1.283,1.283,0,0,0-.943.386,1.283,1.283,0,0,0-.386.943v.343a1.283,1.283,0,0,1-.386.943A1.283,1.283,0,0,1,15.441,0H15.1a1.283,1.283,0,0,0-.943.386,1.283,1.283,0,0,0-.386.943v.343a1.283,1.283,0,0,1-.386.943A1.283,1.283,0,0,1,12.441,3" transform="translate(7.23 21)" fill="#16ffa6"/>
    </g>
  </g>
</svg>
