<svg id="Component_3_1" data-name="Component 3 – 1" xmlns="http://www.w3.org/2000/svg" xmlns:xlink="http://www.w3.org/1999/xlink" width="33" height="30" viewBox="0 0 33 30">
  <defs>
    <clipPath id="clip-path">
      <path id="Path_5" data-name="Path 5" d="M0,9H33V-21H0Z" transform="translate(0 21)" fill="#f96eff"/>
    </clipPath>
  </defs>
  <g id="Group_47" data-name="Group 47" clip-path="url(#clip-path)">
    <g id="Group_46" data-name="Group 46">
      <path id="Path_4" data-name="Path 4" d="M2.649,9H19.491A1.317,1.317,0,0,0,20.82,7.671V7.329A1.317,1.317,0,0,1,22.149,6h.343A1.317,1.317,0,0,0,23.82,4.671V1.329a1.283,1.283,0,0,1,.386-.943A1.283,1.283,0,0,1,25.149,0h.343a1.283,1.283,0,0,0,.943-.386,1.283,1.283,0,0,0,.386-.943v-9.343a1.283,1.283,0,0,0-.386-.943A1.283,1.283,0,0,0,25.491-12h-.343a1.283,1.283,0,0,1-.943-.386,1.283,1.283,0,0,1-.386-.943v-.343a1.283,1.283,0,0,0-.386-.943A1.283,1.283,0,0,0,22.491-15h-.343a1.283,1.283,0,0,1-.943-.386,1.283,1.283,0,0,1-.386-.943v-.343a1.283,1.283,0,0,0-.386-.943A1.283,1.283,0,0,0,19.491-18h-.343a1.283,1.283,0,0,1-.943-.386,1.283,1.283,0,0,1-.386-.943v-.343a1.283,1.283,0,0,0-.386-.943A1.283,1.283,0,0,0,16.491-21H5.649a1.283,1.283,0,0,0-.943.386,1.283,1.283,0,0,0-.386.943v.343a1.283,1.283,0,0,1-.386.943A1.283,1.283,0,0,1,2.991-18H1.149a1.283,1.283,0,0,0-.943.386,1.283,1.283,0,0,0-.386.943v.343a1.283,1.283,0,0,1-.386.943A1.283,1.283,0,0,1-1.509-15h-.343a1.283,1.283,0,0,0-.943.386,1.283,1.283,0,0,0-.386.943v3.343a1.283,1.283,0,0,1-.386.943A1.283,1.283,0,0,1-4.509-9h-.343a1.283,1.283,0,0,0-.943.386,1.283,1.283,0,0,0-.386.943v4.843a1.283,1.283,0,0,0,.386.943,1.283,1.283,0,0,0,.943.386h.343a1.283,1.283,0,0,1,.943.386,1.283,1.283,0,0,1,.386.943V3.171a1.283,1.283,0,0,0,.386.943,1.283,1.283,0,0,0,.943.386H-.009a1.283,1.283,0,0,1,.943.386,1.283,1.283,0,0,1,.386.943V7.671A1.317,1.317,0,0,0,2.649,9M7.491-7.5H5.649a1.283,1.283,0,0,1-.943-.386,1.283,1.283,0,0,1-.386-.943v-1.843a1.283,1.283,0,0,1,.386-.943A1.283,1.283,0,0,1,5.649-12H7.491a1.283,1.283,0,0,1,.943.386,1.283,1.283,0,0,1,.386.943v1.843a1.283,1.283,0,0,1-.386.943,1.283,1.283,0,0,1-.943.386m9,0H14.649a1.283,1.283,0,0,1-.943-.386,1.283,1.283,0,0,1-.386-.943v-1.843a1.283,1.283,0,0,1,.386-.943A1.283,1.283,0,0,1,14.649-12h1.843a1.283,1.283,0,0,1,.943.386,1.283,1.283,0,0,1,.386.943v1.843a1.283,1.283,0,0,1-.386.943,1.283,1.283,0,0,1-.943.386M4.491,3H4.149a1.283,1.283,0,0,1-.943-.386,1.283,1.283,0,0,1-.386-.943V1.329A1.283,1.283,0,0,1,3.206.386,1.283,1.283,0,0,1,4.149,0h.343a1.283,1.283,0,0,0,.943-.386,1.283,1.283,0,0,0,.386-.943v-.343a1.283,1.283,0,0,1,.386-.943A1.283,1.283,0,0,1,7.149-3h6.343a1.283,1.283,0,0,1,.943.386,1.283,1.283,0,0,1,.386.943v.343a1.283,1.283,0,0,0,.386.943A1.283,1.283,0,0,0,16.149,0h1.843a1.283,1.283,0,0,1,.943.386,1.283,1.283,0,0,1,.386.943v.343a1.283,1.283,0,0,1-.386.943A1.283,1.283,0,0,1,17.991,3H16.149a1.283,1.283,0,0,1-.943-.386,1.283,1.283,0,0,1-.386-.943V1.329a1.283,1.283,0,0,0-.386-.943A1.283,1.283,0,0,0,13.491,0H7.149a1.283,1.283,0,0,0-.943.386,1.283,1.283,0,0,0-.386.943v.343a1.283,1.283,0,0,1-.386.943A1.283,1.283,0,0,1,4.491,3" transform="translate(6.18 21)" fill="#f96eff"/>
    </g>
  </g>
</svg>
